<?xml version="1.0" encoding="UTF-8" standalone="no"?>
<!-- Created with Inkscape (http://www.inkscape.org/) -->

<svg
   width="322.35211mm"
   height="120.70566mm"
   viewBox="0 0 322.35211 120.70566"
   version="1.1"
   id="svg1"
   xml:space="preserve"
   xmlns:inkscape="http://www.inkscape.org/namespaces/inkscape"
   xmlns:sodipodi="http://sodipodi.sourceforge.net/DTD/sodipodi-0.dtd"
   xmlns="http://www.w3.org/2000/svg"
   xmlns:svg="http://www.w3.org/2000/svg"><sodipodi:namedview
     id="namedview1"
     pagecolor="#ffffff"
     bordercolor="#000000"
     borderopacity="0.25"
     inkscape:showpageshadow="2"
     inkscape:pageopacity="0.0"
     inkscape:pagecheckerboard="0"
     inkscape:deskcolor="#d1d1d1"
     inkscape:document-units="mm" /><defs
     id="defs1" /><g
     inkscape:label="Слой 1"
     inkscape:groupmode="layer"
     id="layer1"
     transform="translate(176.28263,-50.142325)"><path
       id="rect8"
       style="opacity:1;fill:#8b31ff;fill-opacity:1;stroke:none;stroke-width:1.93912;stroke-linecap:round;stroke-linejoin:round;stroke-dasharray:none;stroke-opacity:1"
       d="M -138.62307,50.146654 V 170.83932 H 108.40992 V 50.146654 H 15.935461 c 1.30515,0.01854 1.682791,0.182441 2.06034,0.902176 0.438029,0.834997 0.703456,0.910703 3.19412,0.910703 2.188096,0 3.010094,0.172877 4.224548,0.888711 0.829269,0.4888 2.58322,1.072898 3.897954,1.298055 4.519339,0.773943 4.463153,0.738343 4.702038,2.94172 0.267063,2.463188 0.516325,2.800861 2.281515,3.088492 1.080255,0.176025 1.483833,0.461169 1.695503,1.197963 0.950412,3.308339 4.928007,2.938347 7.575765,-0.704684 l 1.016993,-1.398597 1.07642,0.934941 c 1.031718,0.896115 1.485633,0.940463 3.23081,0.316435 0.557034,-0.199188 0.733806,-0.08431 0.733806,0.476223 0,0.52187 -0.363577,0.807935 -1.238684,0.974888 -0.68121,0.129943 -1.718782,0.564492 -2.30632,0.965911 -0.871742,0.595586 -1.069148,1.043566 -1.071252,2.434078 -0.0011,0.937182 -0.284296,2.173472 -0.628902,2.747367 -1.113113,1.853761 -0.808748,3.007442 1.312064,4.976783 l 1.938383,1.799858 -0.731221,1.338007 c -0.528037,0.966513 -0.663391,1.829111 -0.488859,3.109133 0.186164,1.365211 0.05646,2.043439 -0.56379,2.956535 -0.442683,0.651702 -1.667701,3.373021 -2.722315,6.047272 -2.255492,5.719388 -2.868427,6.835807 -3.912422,7.123589 -2.215348,0.610723 -2.637942,5.283717 -0.766362,8.477757 1.401622,2.39196 1.386878,2.87134 -0.205672,6.66039 -0.715798,1.70305 -1.345121,3.75208 -1.398881,4.55352 -0.05371,0.80143 -0.21349,1.7031 -0.355017,2.00363 -0.141525,0.30054 -0.406892,1.35637 -0.589628,2.34611 -0.306318,1.65902 -0.445173,1.8248 -1.778186,2.12482 -0.795259,0.17899 -2.328882,0.96751 -3.408061,1.75229 -1.079179,0.78478 -2.171943,1.42687 -2.428275,1.42687 -0.256334,0 -0.843473,0.32777 -1.30483,0.72847 -0.732307,0.63607 -0.839226,1.21419 -0.839226,4.55352 v 3.82549 h -2.500105 c -3.065331,0 -3.753744,0.52768 -4.872054,3.73573 -1.089067,3.12415 -1.026814,4.74457 0.226859,5.90364 l 1.014408,0.93763 -1.862418,1.64815 c -2.08804,1.84774 -2.087568,1.84339 -1.470711,8.72148 0.264079,2.94457 0.206149,3.39996 -0.572059,4.47003 -0.476579,0.65532 -1.763552,1.66569 -2.859773,2.24512 -2.776081,1.46738 -4.719609,2.91696 -4.719609,3.52073 0,0.28081 -0.262088,0.51078 -0.58291,0.51078 -0.683918,0 -3.54736,1.73067 -6.463171,3.90673 -1.134237,0.84646 -2.183174,1.43374 -2.331124,1.30524 -0.147973,-0.12851 -0.269234,-0.92184 -0.269234,-1.76306 0,-2.55545 -1.93148,-4.01865 -7.501868,-5.68326 -1.264775,-0.37793 -2.66961,-1.03223 -3.121773,-1.4538 -0.659775,-0.6151 -1.171542,-0.73229 -2.59054,-0.59337 l -1.767851,0.17325 0.45682,-1.05164 c 0.601783,-1.38475 0.08884,-2.08741 -2.277897,-3.11991 -1.023439,-0.44649 -2.323244,-1.15991 -2.888196,-1.58531 -0.934749,-0.70385 -1.334536,-0.75147 -4.444173,-0.52649 l -3.417363,0.2473 -0.541569,-1.13557 c -0.297839,-0.62455 -1.245525,-1.6617 -2.105814,-2.30481 -0.860319,-0.64312 -2.046199,-1.99913 -2.635499,-3.01353 -1.21993,-2.0999 -1.73578,-2.55166 -3.30471,-2.8937 -0.80332,-0.1751 -1.33002,-0.0527 -1.88515,0.43898 -0.70984,0.62864 -0.86094,0.63862 -1.92133,0.12298 -0.7884,-0.38338 -1.15159,-0.85539 -1.15342,-1.49824 -0.008,-2.29789 -3.55666,-3.408 -10.21333,-3.19398 l -4.35426,0.14004 -0.65525,-0.99194 c -0.39408,-0.5964 -1.21113,-1.11616 -2.04949,-1.30389 -1.01343,-0.2269 -1.43339,-0.54767 -1.53789,-1.17463 -0.27542,-1.65267 -1.3266,-2.45307 -4.77594,-3.63697 -2.38857,-0.81982 -3.83874,-1.11735 -4.78885,-0.98342 -1.32952,0.18739 -1.35228,0.16786 -0.93586,-0.78413 0.23478,-0.53669 1.2159,-1.84729 2.18023,-2.91254 3.16281,-3.49381 3.6406,-4.16985 3.6406,-5.15183 0,-1.30903 -1.29289,-2.42634 -4.02043,-3.47405 -2.12763,-0.81727 -2.27066,-0.95294 -2.27066,-2.15445 0,-1.5255 -0.83212,-2.0364 -3.31711,-2.0364 -1.65257,0 -1.68852,-0.0269 -1.44746,-1.07363 0.17187,-0.74641 -0.02313,-1.45353 -0.63975,-2.32007 -0.48774,-0.68547 -0.88677,-1.52175 -0.88677,-1.85866 0,-1.04226 -1.27198,-2.81849 -3.4525,-4.82103 l -2.08928,-1.9188 0.92088,-1.29447 c 0.50657,-0.71194 1.26939,-1.45617 1.69498,-1.65399 0.42557,-0.19783 2.54977,-0.35953 4.72064,-0.35953 4.23422,0 5.33508,-0.42839 5.33508,-2.07455 0,-0.408022 0.37788,-1.158462 0.83922,-1.667901 0.995,-1.098683 1.07772,-2.188897 0.21395,-2.811554 -0.93783,-0.676031 -0.36212,-1.096077 1.50171,-1.096077 0.9165,0 2.34254,-0.245483 3.1688,-0.545346 1.33281,-0.483696 1.48125,-0.668509 1.31723,-1.639174 l -0.185,-1.094279 h 6.00894 6.00893 v -3.278807 -3.278347 h 1.52704 c 0.83978,0 2.34449,0.354618 3.34398,0.788171 1.77371,0.769418 1.8566,0.772831 3.46077,0.14452 1.98145,-0.776063 3.76733,-0.544026 6.02134,0.782786 1.84853,1.088121 2.91502,0.963595 5.628599,-0.658008 l 1.81746,-1.086193 1.195793,0.767968 c 2.497967,1.604084 6.556207,1.616261 8.214485,0.02468 1.163007,-1.116211 0.734723,-2.97124 -0.890385,-3.856012 -1.541238,-0.839104 -1.737953,-1.279657 -0.571024,-1.279657 0.444609,0 1.165726,-0.394338 1.602486,-0.876591 0.43674,-0.482262 1.233719,-0.933091 1.770951,-1.00182 0.537232,-0.0687 1.340732,-0.550254 1.785421,-1.069586 1.835085,-2.143271 2.143786,-13.001204 0.498678,-17.5435 -0.154645,-0.427 -0.0072,-0.637357 0.447517,-0.637357 0.373021,0 1.221519,-0.243911 1.885674,-0.542203 l 1.207678,-0.542652 1.829862,3.001417 c 2.215273,3.632726 2.737011,3.793906 6.229594,1.921498 1.996536,-1.07035 2.622711,-1.24963 3.287138,-0.94077 0.451409,0.20984 1.470683,0.381516 2.264978,0.381516 0.794295,0 1.679115,0.245704 1.966288,0.546242 1.460283,1.528271 4.074343,-0.208522 5.007963,-3.327276 1.157366,-3.86621 1.810287,-5.248805 3.19102,-6.757338 0.791783,-0.865055 1.441083,-1.859488 1.443323,-2.210106 0.0035,-0.4697 0.357782,-0.60924 1.549259,-0.62883 z"
       inkscape:export-filename="path8.svg"
       inkscape:export-xdpi="96"
       inkscape:export-ydpi="96" /><rect
       style="opacity:1;fill:#8b31ff;fill-opacity:1;stroke:none;stroke-width:1.77074;stroke-linecap:round;stroke-linejoin:round;stroke-dasharray:none;stroke-opacity:1"
       id="rect9"
       width="38.188736"
       height="120.70132"
       x="-176.28264"
       y="50.146652" /><rect
       style="fill:#8b31ff;fill-opacity:1;stroke:none;stroke-width:1.77074;stroke-linecap:round;stroke-linejoin:round;stroke-dasharray:none;stroke-opacity:1"
       id="rect9-1"
       width="38.188736"
       height="120.70132"
       x="107.88075"
       y="50.142323"
       inkscape:export-filename="path8.svg"
       inkscape:export-xdpi="96"
       inkscape:export-ydpi="96" /></g></svg>
